<?xml version="1.0" encoding="iso-8859-1"?>
<!-- Uploaded to: SVG Repo, www.svgrepo.com, Generator: SVG Repo Mixer Tools -->
<svg height="800px" width="800px" version="1.1" id="Capa_1" xmlns="http://www.w3.org/2000/svg" xmlns:xlink="http://www.w3.org/1999/xlink" 
	 viewBox="0 0 451.819 451.819" xml:space="preserve">
<g>
	<g>
		<path style="fill:#010002;" d="M179.828,278.074h92.17c21.663,0,39.294-17.631,39.294-39.294s-17.631-39.294-39.294-39.294h-92.17
			c-21.671,0-39.294,17.631-39.294,39.294S158.158,278.074,179.828,278.074z M179.828,215.745h92.17
			c12.705,0,23.036,10.331,23.036,23.036s-10.331,23.036-23.036,23.036h-92.17c-12.705,0-23.036-10.331-23.036-23.036
			S167.124,215.745,179.828,215.745z"/>
		<path style="fill:#010002;" d="M451.819,36.924H0v117.864h31.157v260.106h389.497V154.788h31.157V36.924H451.819z
			 M404.405,398.638H47.422V154.788h356.983V398.638z M435.562,138.531h-14.9H31.165H16.257v-85.35h419.296v85.35H435.562z"/>
	</g>
</g>
</svg>